<svg width="30" height="30" viewBox="0 0 30 30" fill="none" xmlns="http://www.w3.org/2000/svg">
<path fill-rule="evenodd" clip-rule="evenodd" d="M7.15003 7.15C7.32581 6.97444 7.56409 6.87583 7.81253 6.87583C8.06097 6.87583 8.29925 6.97444 8.47503 7.15L15 13.675L21.525 7.15C21.6109 7.05789 21.7144 6.98401 21.8294 6.93277C21.9444 6.88153 22.0685 6.85398 22.1944 6.85176C22.3203 6.84954 22.4453 6.8727 22.562 6.91985C22.6788 6.967 22.7848 7.03718 22.8738 7.1262C22.9629 7.21523 23.033 7.32127 23.0802 7.438C23.1273 7.55474 23.1505 7.67978 23.1483 7.80565C23.146 7.93153 23.1185 8.05567 23.0673 8.17067C23.016 8.28567 22.9421 8.38917 22.85 8.475L16.325 15L22.85 21.525C22.9421 21.6108 23.016 21.7143 23.0673 21.8293C23.1185 21.9443 23.146 22.0685 23.1483 22.1943C23.1505 22.3202 23.1273 22.4453 23.0802 22.562C23.033 22.6787 22.9629 22.7848 22.8738 22.8738C22.7848 22.9628 22.6788 23.033 22.562 23.0802C22.4453 23.1273 22.3203 23.1505 22.1944 23.1482C22.0685 23.146 21.9444 23.1185 21.8294 23.0672C21.7144 23.016 21.6109 22.9421 21.525 22.85L15 16.325L8.47503 22.85C8.29731 23.0156 8.06225 23.1058 7.81938 23.1015C7.5765 23.0972 7.34477 22.9988 7.173 22.827C7.00124 22.6553 6.90285 22.4235 6.89856 22.1807C6.89428 21.9378 6.98443 21.7027 7.15003 21.525L13.675 15L7.15003 8.475C6.97447 8.29922 6.87585 8.06094 6.87585 7.8125C6.87585 7.56406 6.97447 7.32578 7.15003 7.15Z" fill="white"/>
</svg>
