<svg width="50" height="50" viewBox="0 0 50 50" fill="none" xmlns="http://www.w3.org/2000/svg">
<path d="M25 48.4375C12.0766 48.4375 1.5625 37.9234 1.5625 25C1.5625 12.0766 12.0766 1.5625 25 1.5625C37.9234 1.5625 48.4375 12.0766 48.4375 25C48.4375 37.9234 37.9234 48.4375 25 48.4375ZM25 3.125C12.9375 3.125 3.125 12.9375 3.125 25C3.125 37.0625 12.9375 46.875 25 46.875C37.0625 46.875 46.875 37.0625 46.875 25C46.875 12.9375 37.0625 3.125 25 3.125Z" fill="white"/>
<path d="M36.9374 32.3641L29.4968 29.7828L28.9921 25.7453C28.6562 26.225 28.1749 26.5985 27.5483 26.7938L28.0062 30.4578C28.0421 30.7531 28.2437 31.0031 28.5249 31.0985L36.4233 33.8422C37.8296 34.3328 39.0624 36.0719 39.0624 37.5625V37.5516C39.0624 37.9828 39.4124 38.3328 39.8437 38.3328C40.2733 38.3328 40.6233 37.9844 40.6249 37.5547C40.6202 35.4 38.9687 33.075 36.9374 32.3641Z" fill="white"/>
<path d="M10.1562 38.3313C9.725 38.3313 9.375 37.9813 9.375 37.55V37.5609C9.375 35.4063 11.0297 33.075 13.0609 32.3641L20.5016 29.8L20.5203 29.3625C20.5734 28.9344 20.9719 28.6359 21.3938 28.6844C21.8203 28.7375 22.125 29.1281 22.0719 29.5578L21.9922 30.4781C21.9562 30.7734 21.7531 31.0219 21.4719 31.1188L13.575 33.8406C12.1703 34.3328 10.9375 36.0719 10.9375 37.5609V37.55C10.9375 37.9828 10.5875 38.3313 10.1562 38.3313Z" fill="white"/>
<path d="M24.9999 28.1859C20.6577 28.1859 18.4499 25.3047 18.4358 18.0781C18.4327 16.2438 18.628 14.3859 20.353 12.6578C21.4515 11.5563 23.014 10.9984 24.9999 10.9984C26.9858 10.9984 28.5483 11.5563 29.6483 12.6594C31.3733 14.3859 31.5686 16.2453 31.5655 18.0797C31.5499 25.3047 29.3421 28.1859 24.9999 28.1859ZM24.9999 12.5609C23.4233 12.5609 22.2655 12.9547 21.4577 13.7625C20.4702 14.7516 19.9921 15.6375 19.9968 18.0766C20.0093 24.3547 21.6452 26.625 24.9983 26.625C28.3515 26.625 29.9874 24.3547 29.9999 18.0766C30.0046 15.6375 29.5265 14.7516 28.539 13.7625C27.7343 12.9547 26.5765 12.5609 24.9999 12.5609Z" fill="white"/>
</svg>
