<svg width="30" height="30" viewBox="0 0 30 30" fill="none" xmlns="http://www.w3.org/2000/svg">
<g clip-path="url(#clip0_39_2)">
<path d="M6.50024 12.9953C6.22425 12.9953 6.00024 13.2193 6.00024 13.4953V16.4954C6.00024 16.7713 6.22425 16.9953 6.50024 16.9953C6.77622 16.9953 7.00023 16.7713 7.00023 16.4954V13.4953C7.00029 13.2193 6.77628 12.9953 6.50024 12.9953Z" fill="white"/>
<path d="M6.55414 0.135005L1.82652 2.02657C0.495011 2.51959 0 3.18862 0 4.49512V25.5001C0 26.8066 0.495011 27.4756 1.81404 27.9646L6.56364 29.8647C6.79866 29.9537 7.03462 29.9987 7.26566 29.9987C8.27069 29.9987 9.00019 29.1587 9.00019 28.0012V1.9951C9.00019 0.573061 7.86615 -0.358951 6.55414 0.135005ZM8.00015 28.0012C8.00015 28.5976 7.70513 28.9987 7.26566 28.9987C7.15615 28.9987 7.03814 28.9752 6.92564 28.9332L2.17405 27.0316C1.23055 26.6821 1.00004 26.3811 1.00004 25.5001V4.49512C1.00004 3.61408 1.23055 3.31361 2.18606 2.95958L6.91614 1.06754C7.03814 1.02155 7.15562 0.998051 7.26514 0.998051C7.70466 0.998051 8.00015 1.39855 8.00015 1.9951V28.0012Z" fill="white"/>
<path d="M10.4377 2.9951H17.5004C18.3274 2.9951 19.0004 3.66812 19.0004 4.49513V11.9953C19.0004 12.2713 19.2239 12.4953 19.5004 12.4953C19.7769 12.4953 20.0004 12.2713 20.0004 11.9953V4.49513C20.0004 3.11662 18.8789 1.99506 17.5003 1.99506H10.4377C10.1618 1.99506 9.93774 2.21906 9.93774 2.49505C9.93774 2.77103 10.1618 2.9951 10.4377 2.9951Z" fill="white"/>
<path d="M19.5004 17.4954C19.2239 17.4954 19.0004 17.7194 19.0004 17.9954V25.4956C19.0004 26.3226 18.3274 26.9956 17.5004 26.9956H10.5002C10.2243 26.9956 10.0002 27.2196 10.0002 27.4956C10.0002 27.7716 10.2243 27.9956 10.5002 27.9956H17.5004C18.8789 27.9956 20.0005 26.8741 20.0005 25.4955V17.9954C20.0004 17.7194 19.7769 17.4954 19.5004 17.4954Z" fill="white"/>
<path d="M29.9621 14.8043C29.9366 14.7428 29.9001 14.6878 29.8536 14.6413L24.854 9.64123C24.6584 9.44576 24.3424 9.44576 24.147 9.64123C23.9514 9.83677 23.9514 10.1528 24.147 10.3482L28.2936 14.4953H11.5002C11.2243 14.4953 11.0002 14.7193 11.0002 14.9953C11.0002 15.2713 11.2243 15.4953 11.5002 15.4953H28.2936L24.147 19.6419C23.9514 19.8375 23.9514 20.1535 24.147 20.3489C24.2445 20.4464 24.3725 20.4954 24.5005 20.4954C24.6285 20.4954 24.7565 20.4464 24.854 20.3489L29.8536 15.3493C29.9001 15.3028 29.9366 15.2478 29.9621 15.1863C30.0126 15.0644 30.0126 14.9264 29.9621 14.8043Z" fill="white"/>
</g>
<defs>
<clipPath id="clip0_39_2">
<rect width="30" height="30" fill="white"/>
</clipPath>
</defs>
</svg>
